<svg id="svg-plan" role="img" aria-label="밥상궁 100평 표준매장 2D 평면도" viewBox="0 0 1060 810" xmlns="http://www.w3.org/2000/svg"><rect width="1060" height="810" fill="#F3EDE1"></rect><rect x="96.0" y="90.0" width="880.0" height="600.0" fill="#FBF7EE" stroke="#8C8172" stroke-width="1"></rect><g class="zseg" data-zone="boh" style="opacity: 1;"><rect x="96.0" y="90.0" width="880.0" height="160.0" fill="#DCE6E3" stroke="#B6A891" stroke-width="1.2"></rect></g><g class="zseg" data-zone="buffet" style="opacity: 1;"><rect x="96.0" y="250.0" width="736.0" height="208.0" fill="#F5E3C4" stroke="#B6A891" stroke-width="1.2"></rect></g><g class="zseg" data-zone="hall" style="opacity: 1;"><rect x="96.0" y="458.0" width="736.0" height="232.0" fill="#F8F2E4" stroke="#B6A891" stroke-width="1.2"></rect></g><g class="zseg" data-zone="room" style="opacity: 1;"><rect x="832.0" y="250.0" width="144.0" height="304.0" fill="#F0DCD5" stroke="#B6A891" stroke-width="1.2"></rect></g><g class="zseg" data-zone="wc" style="opacity: 1;"><rect x="832.0" y="554.0" width="144.0" height="136.0" fill="#DFE6EA" stroke="#B6A891" stroke-width="1.2"></rect></g><g class="zseg" data-zone="entry" style="opacity: 1;"><rect x="96.0" y="586.0" width="216.0" height="104.0" fill="#EBE2D2" stroke="#B6A891" stroke-width="1.2"></rect></g><g class="zseg" data-zone="boh" style="opacity: 1;"><rect x="96.0" y="90.0" width="880.0" height="8.0" fill="#3A322C"></rect></g><g class="zseg" data-zone="boh" style="opacity: 1;"><rect x="96.0" y="90.0" width="8.0" height="600.0" fill="#3A322C"></rect></g><g class="zseg" data-zone="room" style="opacity: 1;"><rect x="968.0" y="98.0" width="8.0" height="592.0" fill="#8C8172"></rect></g><g class="zseg" data-zone="hall" style="opacity: 1;"><rect x="104.0" y="682.0" width="864.0" height="8.0" fill="#8C8172"></rect></g><g class="zseg" data-zone="boh" style="opacity: 1;"><rect x="252.0" y="98.0" width="6.0" height="148.0" fill="#3A322C"></rect></g><g class="zseg" data-zone="boh" style="opacity: 1;"><rect x="572.0" y="98.0" width="6.0" height="148.0" fill="#3A322C"></rect></g><g class="zseg" data-zone="boh" style="opacity: 1;"><rect x="732.0" y="98.0" width="6.0" height="148.0" fill="#3A322C"></rect></g><g class="zseg" data-zone="boh" style="opacity: 1;"><rect x="872.0" y="98.0" width="6.0" height="148.0" fill="#3A322C"></rect></g><g class="zseg" data-zone="boh" style="opacity: 1;"><rect x="104.0" y="244.0" width="232.0" height="6.0" fill="#3A322C"></rect></g><g class="zseg" data-zone="boh" style="opacity: 1;"><rect x="400.0" y="244.0" width="200.0" height="6.0" fill="#3A322C"></rect></g><g class="zseg" data-zone="boh" style="opacity: 1;"><rect x="656.0" y="244.0" width="120.0" height="6.0" fill="#3A322C"></rect></g><g class="zseg" data-zone="boh" style="opacity: 1;"><rect x="824.0" y="244.0" width="144.0" height="6.0" fill="#3A322C"></rect></g><g class="zseg" data-zone="boh" style="opacity: 1;"><rect x="112.0" y="106.0" width="60.0" height="128.0" fill="#C4CDD1" stroke="#6E645A" stroke-width="0.8"></rect></g><g class="zseg" data-zone="boh" style="opacity: 1;"><rect x="188.0" y="106.0" width="56.0" height="52.0" fill="#C4CDD1" stroke="#6E645A" stroke-width="0.8"></rect></g><g class="zseg" data-zone="boh" style="opacity: 1;"><rect x="268.0" y="106.0" width="288.0" height="40.0" fill="#C4CDD1" stroke="#6E645A" stroke-width="0.8"></rect></g><g class="zseg" data-zone="boh" style="opacity: 1;"><rect x="296.0" y="182.0" width="232.0" height="44.0" fill="#C4CDD1" stroke="#6E645A" stroke-width="0.8"></rect></g><g class="zseg" data-zone="boh" style="opacity: 1;"><rect x="584.0" y="106.0" width="136.0" height="40.0" fill="#C4CDD1" stroke="#6E645A" stroke-width="0.8"></rect></g><g class="zseg" data-zone="boh" style="opacity: 1;"><rect x="584.0" y="186.0" width="136.0" height="40.0" fill="#C4CDD1" stroke="#6E645A" stroke-width="0.8"></rect></g><g class="zseg" data-zone="boh" style="opacity: 1;"><rect x="740.0" y="106.0" width="120.0" height="44.0" fill="#C4CDD1" stroke="#6E645A" stroke-width="0.8"></rect></g><g class="zseg" data-zone="boh" style="opacity: 1;"><rect x="740.0" y="186.0" width="120.0" height="40.0" fill="#C4CDD1" stroke="#6E645A" stroke-width="0.8"></rect></g><g class="zseg" data-zone="boh" style="opacity: 1;"><rect x="884.0" y="110.0" width="76.0" height="44.0" fill="#C4CDD1" stroke="#6E645A" stroke-width="0.8"></rect></g><g class="zseg" data-zone="boh" style="opacity: 1;"><rect x="884.0" y="190.0" width="76.0" height="28.0" fill="#C4CDD1" stroke="#6E645A" stroke-width="0.8"></rect></g><g class="zseg" data-zone="buffet" style="opacity: 1;"><rect x="304.0" y="260.0" width="64.0" height="28.0" fill="#D8DEE1" stroke="#6E645A" stroke-width="0.8"></rect></g><g class="zseg" data-zone="buffet" style="opacity: 1;"><rect x="760.0" y="260.0" width="64.0" height="28.0" fill="#D8DEE1" stroke="#6E645A" stroke-width="0.8"></rect></g><g class="zseg" data-zone="buffet" style="opacity: 1;"><rect x="116.0" y="306.0" width="48.0" height="136.0" fill="#D8DEE1" stroke="#6E645A" stroke-width="0.8"></rect></g><g class="zseg" data-zone="buffet" style="opacity: 1;"><rect x="224.0" y="306.0" width="104.0" height="60.0" fill="#D8DEE1" stroke="#6E645A" stroke-width="0.8"></rect></g><g class="zseg" data-zone="buffet" style="opacity: 1;"><rect x="224.0" y="386.0" width="104.0" height="56.0" fill="#D8DEE1" stroke="#6E645A" stroke-width="0.8"></rect></g><g class="zseg" data-zone="buffet" style="opacity: 1;"><rect x="384.0" y="306.0" width="216.0" height="56.0" fill="#D8DEE1" stroke="#6E645A" stroke-width="0.8"></rect></g><g class="zseg" data-zone="buffet" style="opacity: 1;"><rect x="384.0" y="386.0" width="216.0" height="56.0" fill="#D8DEE1" stroke="#6E645A" stroke-width="0.8"></rect></g><g class="zseg" data-zone="buffet" style="opacity: 1;"><rect x="656.0" y="306.0" width="120.0" height="136.0" fill="#D8DEE1" stroke="#6E645A" stroke-width="0.8"></rect></g><g class="zseg" data-zone="buffet" style="opacity: 1;"><rect x="354.0" y="310.0" width="20.0" height="20.0" fill="#8CB08C" stroke="#6E645A" stroke-width="0.8"></rect></g><g class="zseg" data-zone="buffet" style="opacity: 1;"><rect x="354.0" y="436.0" width="20.0" height="20.0" fill="#8CB08C" stroke="#6E645A" stroke-width="0.8"></rect></g><g class="zseg" data-zone="buffet" style="opacity: 1;"><rect x="618.0" y="310.0" width="20.0" height="20.0" fill="#8CB08C" stroke="#6E645A" stroke-width="0.8"></rect></g><g class="zseg" data-zone="buffet" style="opacity: 1;"><rect x="618.0" y="436.0" width="20.0" height="20.0" fill="#8CB08C" stroke="#6E645A" stroke-width="0.8"></rect></g><g class="zseg" data-zone="room" style="opacity: 1;"><rect x="826.0" y="306.0" width="6.0" height="120.0" fill="#3A322C"></rect></g><g class="zseg" data-zone="room" style="opacity: 1;"><rect x="832.0" y="300.0" width="144.0" height="6.0" fill="#3A322C"></rect></g><g class="zseg" data-zone="room" style="opacity: 1;"><rect x="832.0" y="420.0" width="144.0" height="6.0" fill="#3A322C"></rect></g><g class="zseg" data-zone="room" style="opacity: 1;"><rect x="826.0" y="438.0" width="6.0" height="116.0" fill="#3A322C"></rect></g><g class="zseg" data-zone="room" style="opacity: 1;"><rect x="832.0" y="548.0" width="144.0" height="6.0" fill="#3A322C"></rect></g><g class="zseg" data-zone="wc" style="opacity: 1;"><rect x="826.0" y="562.0" width="6.0" height="120.0" fill="#3A322C"></rect></g><g class="zseg" data-zone="wc" style="opacity: 1;"><rect x="832.0" y="560.0" width="144.0" height="6.0" fill="#3A322C"></rect></g><g class="zseg" data-zone="wc" style="opacity: 1;"><rect x="898.0" y="566.0" width="4.8" height="116.0" fill="#3A322C"></rect></g><g class="zseg" data-zone="wc" style="opacity: 1;"><rect x="840.0" y="574.0" width="48.0" height="20.0" fill="#C4CDD1" stroke="#6E645A" stroke-width="0.8"></rect></g><g class="zseg" data-zone="wc" style="opacity: 1;"><rect x="908.0" y="574.0" width="52.0" height="20.0" fill="#C4CDD1" stroke="#6E645A" stroke-width="0.8"></rect></g><g class="zseg" data-zone="entry" style="opacity: 1;"><rect x="212.0" y="586.0" width="6.0" height="104.0" fill="#3A322C"></rect></g><g class="zseg" data-zone="entry" style="opacity: 1;"><rect x="104.0" y="584.0" width="108.0" height="6.0" fill="#3A322C"></rect></g><g class="zseg" data-zone="entry" style="opacity: 1;"><rect x="110.0" y="598.0" width="26.0" height="80.0" fill="#C08A78" stroke="#6E645A" stroke-width="0.8"></rect></g><g class="zseg" data-zone="entry" style="opacity: 1;"><rect x="230.0" y="644.0" width="96.0" height="34.0" fill="#C56A67" stroke="#6E645A" stroke-width="0.8"></rect></g><g class="zseg" data-zone="entry" style="opacity: 1;"><rect x="234.0" y="600.0" width="18.0" height="18.0" fill="#C56A67" stroke="#6E645A" stroke-width="0.8"></rect></g><g class="zseg" data-zone="entry" style="opacity: 1;"><rect x="266.0" y="600.0" width="18.0" height="18.0" fill="#C56A67" stroke="#6E645A" stroke-width="0.8"></rect></g><g class="zseg" data-zone="hall" style="opacity: 1;"><rect x="320.0" y="658.0" width="504.0" height="22.0" fill="#C08A78" stroke="#6E645A" stroke-width="0.8"></rect></g><g class="zseg" data-zone="hall" style="opacity: 1;"><rect x="224.0" y="507.0" width="48.0" height="30.0" fill="#D9B68A" stroke="#6E645A" stroke-width="0.8"></rect></g><g class="zseg" data-zone="hall" style="opacity: 1;"><rect x="227.2" y="487.8" width="17.6" height="16.8" fill="#BFA184" stroke="#6E645A" stroke-width="0.5"></rect></g><g class="zseg" data-zone="hall" style="opacity: 1;"><rect x="227.2" y="539.4" width="17.6" height="16.8" fill="#BFA184" stroke="#6E645A" stroke-width="0.5"></rect></g><g class="zseg" data-zone="hall" style="opacity: 1;"><rect x="251.2" y="487.8" width="17.6" height="16.8" fill="#BFA184" stroke="#6E645A" stroke-width="0.5"></rect></g><g class="zseg" data-zone="hall" style="opacity: 1;"><rect x="251.2" y="539.4" width="17.6" height="16.8" fill="#BFA184" stroke="#6E645A" stroke-width="0.5"></rect></g><g class="zseg" data-zone="hall" style="opacity: 1;"><rect x="302.0" y="507.0" width="48.0" height="30.0" fill="#D9B68A" stroke="#6E645A" stroke-width="0.8"></rect></g><g class="zseg" data-zone="hall" style="opacity: 1;"><rect x="305.2" y="487.8" width="17.6" height="16.8" fill="#BFA184" stroke="#6E645A" stroke-width="0.5"></rect></g><g class="zseg" data-zone="hall" style="opacity: 1;"><rect x="305.2" y="539.4" width="17.6" height="16.8" fill="#BFA184" stroke="#6E645A" stroke-width="0.5"></rect></g><g class="zseg" data-zone="hall" style="opacity: 1;"><rect x="329.2" y="487.8" width="17.6" height="16.8" fill="#BFA184" stroke="#6E645A" stroke-width="0.5"></rect></g><g class="zseg" data-zone="hall" style="opacity: 1;"><rect x="329.2" y="539.4" width="17.6" height="16.8" fill="#BFA184" stroke="#6E645A" stroke-width="0.5"></rect></g><g class="zseg" data-zone="hall" style="opacity: 1;"><rect x="380.0" y="507.0" width="48.0" height="30.0" fill="#D9B68A" stroke="#6E645A" stroke-width="0.8"></rect></g><g class="zseg" data-zone="hall" style="opacity: 1;"><rect x="383.2" y="487.8" width="17.6" height="16.8" fill="#BFA184" stroke="#6E645A" stroke-width="0.5"></rect></g><g class="zseg" data-zone="hall" style="opacity: 1;"><rect x="383.2" y="539.4" width="17.6" height="16.8" fill="#BFA184" stroke="#6E645A" stroke-width="0.5"></rect></g><g class="zseg" data-zone="hall" style="opacity: 1;"><rect x="407.2" y="487.8" width="17.6" height="16.8" fill="#BFA184" stroke="#6E645A" stroke-width="0.5"></rect></g><g class="zseg" data-zone="hall" style="opacity: 1;"><rect x="407.2" y="539.4" width="17.6" height="16.8" fill="#BFA184" stroke="#6E645A" stroke-width="0.5"></rect></g><g class="zseg" data-zone="hall" style="opacity: 1;"><rect x="458.0" y="507.0" width="48.0" height="30.0" fill="#D9B68A" stroke="#6E645A" stroke-width="0.8"></rect></g><g class="zseg" data-zone="hall" style="opacity: 1;"><rect x="461.2" y="487.8" width="17.6" height="16.8" fill="#BFA184" stroke="#6E645A" stroke-width="0.5"></rect></g><g class="zseg" data-zone="hall" style="opacity: 1;"><rect x="461.2" y="539.4" width="17.6" height="16.8" fill="#BFA184" stroke="#6E645A" stroke-width="0.5"></rect></g><g class="zseg" data-zone="hall" style="opacity: 1;"><rect x="485.2" y="487.8" width="17.6" height="16.8" fill="#BFA184" stroke="#6E645A" stroke-width="0.5"></rect></g><g class="zseg" data-zone="hall" style="opacity: 1;"><rect x="485.2" y="539.4" width="17.6" height="16.8" fill="#BFA184" stroke="#6E645A" stroke-width="0.5"></rect></g><g class="zseg" data-zone="hall" style="opacity: 1;"><rect x="536.0" y="507.0" width="48.0" height="30.0" fill="#D9B68A" stroke="#6E645A" stroke-width="0.8"></rect></g><g class="zseg" data-zone="hall" style="opacity: 1;"><rect x="539.2" y="487.8" width="17.6" height="16.8" fill="#BFA184" stroke="#6E645A" stroke-width="0.5"></rect></g><g class="zseg" data-zone="hall" style="opacity: 1;"><rect x="539.2" y="539.4" width="17.6" height="16.8" fill="#BFA184" stroke="#6E645A" stroke-width="0.5"></rect></g><g class="zseg" data-zone="hall" style="opacity: 1;"><rect x="563.2" y="487.8" width="17.6" height="16.8" fill="#BFA184" stroke="#6E645A" stroke-width="0.5"></rect></g><g class="zseg" data-zone="hall" style="opacity: 1;"><rect x="563.2" y="539.4" width="17.6" height="16.8" fill="#BFA184" stroke="#6E645A" stroke-width="0.5"></rect></g><g class="zseg" data-zone="hall" style="opacity: 1;"><rect x="614.0" y="507.0" width="48.0" height="30.0" fill="#D9B68A" stroke="#6E645A" stroke-width="0.8"></rect></g><g class="zseg" data-zone="hall" style="opacity: 1;"><rect x="617.2" y="487.8" width="17.6" height="16.8" fill="#BFA184" stroke="#6E645A" stroke-width="0.5"></rect></g><g class="zseg" data-zone="hall" style="opacity: 1;"><rect x="617.2" y="539.4" width="17.6" height="16.8" fill="#BFA184" stroke="#6E645A" stroke-width="0.5"></rect></g><g class="zseg" data-zone="hall" style="opacity: 1;"><rect x="641.2" y="487.8" width="17.6" height="16.8" fill="#BFA184" stroke="#6E645A" stroke-width="0.5"></rect></g><g class="zseg" data-zone="hall" style="opacity: 1;"><rect x="641.2" y="539.4" width="17.6" height="16.8" fill="#BFA184" stroke="#6E645A" stroke-width="0.5"></rect></g><g class="zseg" data-zone="hall" style="opacity: 1;"><rect x="692.0" y="507.0" width="48.0" height="30.0" fill="#D9B68A" stroke="#6E645A" stroke-width="0.8"></rect></g><g class="zseg" data-zone="hall" style="opacity: 1;"><rect x="695.2" y="487.8" width="17.6" height="16.8" fill="#BFA184" stroke="#6E645A" stroke-width="0.5"></rect></g><g class="zseg" data-zone="hall" style="opacity: 1;"><rect x="695.2" y="539.4" width="17.6" height="16.8" fill="#BFA184" stroke="#6E645A" stroke-width="0.5"></rect></g><g class="zseg" data-zone="hall" style="opacity: 1;"><rect x="719.2" y="487.8" width="17.6" height="16.8" fill="#BFA184" stroke="#6E645A" stroke-width="0.5"></rect></g><g class="zseg" data-zone="hall" style="opacity: 1;"><rect x="719.2" y="539.4" width="17.6" height="16.8" fill="#BFA184" stroke="#6E645A" stroke-width="0.5"></rect></g><g class="zseg" data-zone="hall" style="opacity: 1;"><rect x="770.0" y="507.0" width="48.0" height="30.0" fill="#D9B68A" stroke="#6E645A" stroke-width="0.8"></rect></g><g class="zseg" data-zone="hall" style="opacity: 1;"><rect x="773.2" y="487.8" width="17.6" height="16.8" fill="#BFA184" stroke="#6E645A" stroke-width="0.5"></rect></g><g class="zseg" data-zone="hall" style="opacity: 1;"><rect x="773.2" y="539.4" width="17.6" height="16.8" fill="#BFA184" stroke="#6E645A" stroke-width="0.5"></rect></g><g class="zseg" data-zone="hall" style="opacity: 1;"><rect x="797.2" y="487.8" width="17.6" height="16.8" fill="#BFA184" stroke="#6E645A" stroke-width="0.5"></rect></g><g class="zseg" data-zone="hall" style="opacity: 1;"><rect x="797.2" y="539.4" width="17.6" height="16.8" fill="#BFA184" stroke="#6E645A" stroke-width="0.5"></rect></g><g class="zseg" data-zone="hall" style="opacity: 1;"><rect x="224.0" y="573.0" width="48.0" height="30.0" fill="#D9B68A" stroke="#6E645A" stroke-width="0.8"></rect></g><g class="zseg" data-zone="hall" style="opacity: 1;"><rect x="227.2" y="553.8" width="17.6" height="16.8" fill="#BFA184" stroke="#6E645A" stroke-width="0.5"></rect></g><g class="zseg" data-zone="hall" style="opacity: 1;"><rect x="227.2" y="605.4" width="17.6" height="16.8" fill="#BFA184" stroke="#6E645A" stroke-width="0.5"></rect></g><g class="zseg" data-zone="hall" style="opacity: 1;"><rect x="251.2" y="553.8" width="17.6" height="16.8" fill="#BFA184" stroke="#6E645A" stroke-width="0.5"></rect></g><g class="zseg" data-zone="hall" style="opacity: 1;"><rect x="251.2" y="605.4" width="17.6" height="16.8" fill="#BFA184" stroke="#6E645A" stroke-width="0.5"></rect></g><g class="zseg" data-zone="hall" style="opacity: 1;"><rect x="302.0" y="573.0" width="48.0" height="30.0" fill="#D9B68A" stroke="#6E645A" stroke-width="0.8"></rect></g><g class="zseg" data-zone="hall" style="opacity: 1;"><rect x="305.2" y="553.8" width="17.6" height="16.8" fill="#BFA184" stroke="#6E645A" stroke-width="0.5"></rect></g><g class="zseg" data-zone="hall" style="opacity: 1;"><rect x="305.2" y="605.4" width="17.6" height="16.8" fill="#BFA184" stroke="#6E645A" stroke-width="0.5"></rect></g><g class="zseg" data-zone="hall" style="opacity: 1;"><rect x="329.2" y="553.8" width="17.6" height="16.8" fill="#BFA184" stroke="#6E645A" stroke-width="0.5"></rect></g><g class="zseg" data-zone="hall" style="opacity: 1;"><rect x="329.2" y="605.4" width="17.6" height="16.8" fill="#BFA184" stroke="#6E645A" stroke-width="0.5"></rect></g><g class="zseg" data-zone="hall" style="opacity: 1;"><rect x="380.0" y="573.0" width="48.0" height="30.0" fill="#D9B68A" stroke="#6E645A" stroke-width="0.8"></rect></g><g class="zseg" data-zone="hall" style="opacity: 1;"><rect x="383.2" y="553.8" width="17.6" height="16.8" fill="#BFA184" stroke="#6E645A" stroke-width="0.5"></rect></g><g class="zseg" data-zone="hall" style="opacity: 1;"><rect x="383.2" y="605.4" width="17.6" height="16.8" fill="#BFA184" stroke="#6E645A" stroke-width="0.5"></rect></g><g class="zseg" data-zone="hall" style="opacity: 1;"><rect x="407.2" y="553.8" width="17.6" height="16.8" fill="#BFA184" stroke="#6E645A" stroke-width="0.5"></rect></g><g class="zseg" data-zone="hall" style="opacity: 1;"><rect x="407.2" y="605.4" width="17.6" height="16.8" fill="#BFA184" stroke="#6E645A" stroke-width="0.5"></rect></g><g class="zseg" data-zone="hall" style="opacity: 1;"><rect x="458.0" y="573.0" width="48.0" height="30.0" fill="#D9B68A" stroke="#6E645A" stroke-width="0.8"></rect></g><g class="zseg" data-zone="hall" style="opacity: 1;"><rect x="461.2" y="553.8" width="17.6" height="16.8" fill="#BFA184" stroke="#6E645A" stroke-width="0.5"></rect></g><g class="zseg" data-zone="hall" style="opacity: 1;"><rect x="461.2" y="605.4" width="17.6" height="16.8" fill="#BFA184" stroke="#6E645A" stroke-width="0.5"></rect></g><g class="zseg" data-zone="hall" style="opacity: 1;"><rect x="485.2" y="553.8" width="17.6" height="16.8" fill="#BFA184" stroke="#6E645A" stroke-width="0.5"></rect></g><g class="zseg" data-zone="hall" style="opacity: 1;"><rect x="485.2" y="605.4" width="17.6" height="16.8" fill="#BFA184" stroke="#6E645A" stroke-width="0.5"></rect></g><g class="zseg" data-zone="hall" style="opacity: 1;"><rect x="536.0" y="573.0" width="48.0" height="30.0" fill="#D9B68A" stroke="#6E645A" stroke-width="0.8"></rect></g><g class="zseg" data-zone="hall" style="opacity: 1;"><rect x="539.2" y="553.8" width="17.6" height="16.8" fill="#BFA184" stroke="#6E645A" stroke-width="0.5"></rect></g><g class="zseg" data-zone="hall" style="opacity: 1;"><rect x="539.2" y="605.4" width="17.6" height="16.8" fill="#BFA184" stroke="#6E645A" stroke-width="0.5"></rect></g><g class="zseg" data-zone="hall" style="opacity: 1;"><rect x="563.2" y="553.8" width="17.6" height="16.8" fill="#BFA184" stroke="#6E645A" stroke-width="0.5"></rect></g><g class="zseg" data-zone="hall" style="opacity: 1;"><rect x="563.2" y="605.4" width="17.6" height="16.8" fill="#BFA184" stroke="#6E645A" stroke-width="0.5"></rect></g><g class="zseg" data-zone="hall" style="opacity: 1;"><rect x="614.0" y="573.0" width="48.0" height="30.0" fill="#D9B68A" stroke="#6E645A" stroke-width="0.8"></rect></g><g class="zseg" data-zone="hall" style="opacity: 1;"><rect x="617.2" y="553.8" width="17.6" height="16.8" fill="#BFA184" stroke="#6E645A" stroke-width="0.5"></rect></g><g class="zseg" data-zone="hall" style="opacity: 1;"><rect x="617.2" y="605.4" width="17.6" height="16.8" fill="#BFA184" stroke="#6E645A" stroke-width="0.5"></rect></g><g class="zseg" data-zone="hall" style="opacity: 1;"><rect x="641.2" y="553.8" width="17.6" height="16.8" fill="#BFA184" stroke="#6E645A" stroke-width="0.5"></rect></g><g class="zseg" data-zone="hall" style="opacity: 1;"><rect x="641.2" y="605.4" width="17.6" height="16.8" fill="#BFA184" stroke="#6E645A" stroke-width="0.5"></rect></g><g class="zseg" data-zone="hall" style="opacity: 1;"><rect x="692.0" y="573.0" width="48.0" height="30.0" fill="#D9B68A" stroke="#6E645A" stroke-width="0.8"></rect></g><g class="zseg" data-zone="hall" style="opacity: 1;"><rect x="695.2" y="553.8" width="17.6" height="16.8" fill="#BFA184" stroke="#6E645A" stroke-width="0.5"></rect></g><g class="zseg" data-zone="hall" style="opacity: 1;"><rect x="695.2" y="605.4" width="17.6" height="16.8" fill="#BFA184" stroke="#6E645A" stroke-width="0.5"></rect></g><g class="zseg" data-zone="hall" style="opacity: 1;"><rect x="719.2" y="553.8" width="17.6" height="16.8" fill="#BFA184" stroke="#6E645A" stroke-width="0.5"></rect></g><g class="zseg" data-zone="hall" style="opacity: 1;"><rect x="719.2" y="605.4" width="17.6" height="16.8" fill="#BFA184" stroke="#6E645A" stroke-width="0.5"></rect></g><g class="zseg" data-zone="hall" style="opacity: 1;"><rect x="770.0" y="573.0" width="48.0" height="30.0" fill="#D9B68A" stroke="#6E645A" stroke-width="0.8"></rect></g><g class="zseg" data-zone="hall" style="opacity: 1;"><rect x="773.2" y="553.8" width="17.6" height="16.8" fill="#BFA184" stroke="#6E645A" stroke-width="0.5"></rect></g><g class="zseg" data-zone="hall" style="opacity: 1;"><rect x="773.2" y="605.4" width="17.6" height="16.8" fill="#BFA184" stroke="#6E645A" stroke-width="0.5"></rect></g><g class="zseg" data-zone="hall" style="opacity: 1;"><rect x="797.2" y="553.8" width="17.6" height="16.8" fill="#BFA184" stroke="#6E645A" stroke-width="0.5"></rect></g><g class="zseg" data-zone="hall" style="opacity: 1;"><rect x="797.2" y="605.4" width="17.6" height="16.8" fill="#BFA184" stroke="#6E645A" stroke-width="0.5"></rect></g><g class="zseg" data-zone="hall" style="opacity: 1;"><rect x="322.0" y="630.0" width="28.0" height="28.0" fill="#D9B68A" stroke="#6E645A" stroke-width="0.8"></rect></g><g class="zseg" data-zone="hall" style="opacity: 1;"><rect x="327.2" y="610.8" width="17.6" height="16.8" fill="#BFA184" stroke="#6E645A" stroke-width="0.5"></rect></g><g class="zseg" data-zone="hall" style="opacity: 1;"><rect x="390.0" y="630.0" width="28.0" height="28.0" fill="#D9B68A" stroke="#6E645A" stroke-width="0.8"></rect></g><g class="zseg" data-zone="hall" style="opacity: 1;"><rect x="395.2" y="610.8" width="17.6" height="16.8" fill="#BFA184" stroke="#6E645A" stroke-width="0.5"></rect></g><g class="zseg" data-zone="hall" style="opacity: 1;"><rect x="458.0" y="630.0" width="28.0" height="28.0" fill="#D9B68A" stroke="#6E645A" stroke-width="0.8"></rect></g><g class="zseg" data-zone="hall" style="opacity: 1;"><rect x="463.2" y="610.8" width="17.6" height="16.8" fill="#BFA184" stroke="#6E645A" stroke-width="0.5"></rect></g><g class="zseg" data-zone="hall" style="opacity: 1;"><rect x="526.0" y="630.0" width="28.0" height="28.0" fill="#D9B68A" stroke="#6E645A" stroke-width="0.8"></rect></g><g class="zseg" data-zone="hall" style="opacity: 1;"><rect x="531.2" y="610.8" width="17.6" height="16.8" fill="#BFA184" stroke="#6E645A" stroke-width="0.5"></rect></g><g class="zseg" data-zone="hall" style="opacity: 1;"><rect x="594.0" y="630.0" width="28.0" height="28.0" fill="#D9B68A" stroke="#6E645A" stroke-width="0.8"></rect></g><g class="zseg" data-zone="hall" style="opacity: 1;"><rect x="599.2" y="610.8" width="17.6" height="16.8" fill="#BFA184" stroke="#6E645A" stroke-width="0.5"></rect></g><g class="zseg" data-zone="hall" style="opacity: 1;"><rect x="662.0" y="630.0" width="28.0" height="28.0" fill="#D9B68A" stroke="#6E645A" stroke-width="0.8"></rect></g><g class="zseg" data-zone="hall" style="opacity: 1;"><rect x="667.2" y="610.8" width="17.6" height="16.8" fill="#BFA184" stroke="#6E645A" stroke-width="0.5"></rect></g><g class="zseg" data-zone="hall" style="opacity: 1;"><rect x="730.0" y="630.0" width="28.0" height="28.0" fill="#D9B68A" stroke="#6E645A" stroke-width="0.8"></rect></g><g class="zseg" data-zone="hall" style="opacity: 1;"><rect x="735.2" y="610.8" width="17.6" height="16.8" fill="#BFA184" stroke="#6E645A" stroke-width="0.5"></rect></g><g class="zseg" data-zone="hall" style="opacity: 1;"><rect x="798.0" y="630.0" width="28.0" height="28.0" fill="#D9B68A" stroke="#6E645A" stroke-width="0.8"></rect></g><g class="zseg" data-zone="hall" style="opacity: 1;"><rect x="803.2" y="610.8" width="17.6" height="16.8" fill="#BFA184" stroke="#6E645A" stroke-width="0.5"></rect></g><g class="zseg" data-zone="room" style="opacity: 1;"><rect x="864.0" y="347.0" width="80.0" height="38.0" fill="#D9B68A" stroke="#6E645A" stroke-width="0.8"></rect></g><g class="zseg" data-zone="room" style="opacity: 1;"><rect x="869.2" y="327.8" width="17.6" height="16.8" fill="#BFA184" stroke="#6E645A" stroke-width="0.5"></rect></g><g class="zseg" data-zone="room" style="opacity: 1;"><rect x="869.2" y="387.4" width="17.6" height="16.8" fill="#BFA184" stroke="#6E645A" stroke-width="0.5"></rect></g><g class="zseg" data-zone="room" style="opacity: 1;"><rect x="895.2" y="327.8" width="17.6" height="16.8" fill="#BFA184" stroke="#6E645A" stroke-width="0.5"></rect></g><g class="zseg" data-zone="room" style="opacity: 1;"><rect x="895.2" y="387.4" width="17.6" height="16.8" fill="#BFA184" stroke="#6E645A" stroke-width="0.5"></rect></g><g class="zseg" data-zone="room" style="opacity: 1;"><rect x="921.2" y="327.8" width="17.6" height="16.8" fill="#BFA184" stroke="#6E645A" stroke-width="0.5"></rect></g><g class="zseg" data-zone="room" style="opacity: 1;"><rect x="921.2" y="387.4" width="17.6" height="16.8" fill="#BFA184" stroke="#6E645A" stroke-width="0.5"></rect></g><g class="zseg" data-zone="room" style="opacity: 1;"><rect x="844.8" y="357.2" width="16.8" height="17.6" fill="#BFA184" stroke="#6E645A" stroke-width="0.5"></rect></g><g class="zseg" data-zone="room" style="opacity: 1;"><rect x="946.4" y="357.2" width="16.8" height="17.6" fill="#BFA184" stroke="#6E645A" stroke-width="0.5"></rect></g><g class="zseg" data-zone="room" style="opacity: 1;"><rect x="864.0" y="477.0" width="80.0" height="38.0" fill="#D9B68A" stroke="#6E645A" stroke-width="0.8"></rect></g><g class="zseg" data-zone="room" style="opacity: 1;"><rect x="869.2" y="457.8" width="17.6" height="16.8" fill="#BFA184" stroke="#6E645A" stroke-width="0.5"></rect></g><g class="zseg" data-zone="room" style="opacity: 1;"><rect x="869.2" y="517.4" width="17.6" height="16.8" fill="#BFA184" stroke="#6E645A" stroke-width="0.5"></rect></g><g class="zseg" data-zone="room" style="opacity: 1;"><rect x="895.2" y="457.8" width="17.6" height="16.8" fill="#BFA184" stroke="#6E645A" stroke-width="0.5"></rect></g><g class="zseg" data-zone="room" style="opacity: 1;"><rect x="895.2" y="517.4" width="17.6" height="16.8" fill="#BFA184" stroke="#6E645A" stroke-width="0.5"></rect></g><g class="zseg" data-zone="room" style="opacity: 1;"><rect x="921.2" y="457.8" width="17.6" height="16.8" fill="#BFA184" stroke="#6E645A" stroke-width="0.5"></rect></g><g class="zseg" data-zone="room" style="opacity: 1;"><rect x="921.2" y="517.4" width="17.6" height="16.8" fill="#BFA184" stroke="#6E645A" stroke-width="0.5"></rect></g><g class="zseg" data-zone="room" style="opacity: 1;"><rect x="844.8" y="487.2" width="16.8" height="17.6" fill="#BFA184" stroke="#6E645A" stroke-width="0.5"></rect></g><g class="zseg" data-zone="room" style="opacity: 1;"><rect x="946.4" y="487.2" width="16.8" height="17.6" fill="#BFA184" stroke="#6E645A" stroke-width="0.5"></rect></g><text x="536.0" y="237.2" font-size="14" fill="#2C2621" text-anchor="middle" font-family="Gowun Batang,serif" font-weight="700">주방 · 후방지원   BACK OF HOUSE  |  88.0㎡</text><text x="464.0" y="281.2" font-size="15" fill="#2C2621" text-anchor="middle" font-family="Gowun Batang,serif" font-weight="700">뷔페 배식존</text><text x="464.0" y="298.0" font-size="10.5" fill="#7A6E62" text-anchor="middle">BUFFET ZONE  |  95.7㎡</text><text x="464.0" y="480.0" font-size="15" fill="#2C2621" text-anchor="middle" font-family="Gowun Batang,serif" font-weight="700">홀 객석</text><text x="464.0" y="496.8" font-size="10.5" fill="#7A6E62" text-anchor="middle">DINING HALL  |  92.7㎡</text><text x="904.0" y="272.0" font-size="15" fill="#2C2621" text-anchor="middle" font-family="Gowun Batang,serif" font-weight="700">프라이빗 룸 · 궁실</text><text x="904.0" y="288.8" font-size="10.5" fill="#7A6E62" text-anchor="middle">PRIVATE ROOM  |  27.4㎡</text><text x="904.0" y="572.0" font-size="13.5" fill="#2C2621" text-anchor="middle" font-family="Gowun Batang,serif" font-weight="700">화장실</text><text x="904.0" y="588.8" font-size="10.5" fill="#7A6E62" text-anchor="middle">RESTROOM  |  12.2㎡</text><text x="154.0" y="618.0" font-size="13.5" fill="#2C2621" text-anchor="middle" font-family="Gowun Batang,serif" font-weight="700">입구·대기</text><text x="154.0" y="634.8" font-size="10.5" fill="#7A6E62" text-anchor="middle">ENTRANCE  |  14.0㎡</text><text x="176.0" y="178.0" font-size="11.5" fill="#4A4038" text-anchor="middle">저장 · 냉장냉동</text><text x="416.0" y="178.0" font-size="12.5" fill="#4A4038" text-anchor="middle">메인 조리</text><text x="656.0" y="178.0" font-size="11.5" fill="#4A4038" text-anchor="middle">배식 팬트리</text><text x="804.0" y="178.0" font-size="11.5" fill="#4A4038" text-anchor="middle">세척·퇴식</text><text x="924.0" y="178.0" font-size="11.5" fill="#4A4038" text-anchor="middle">직원실</text><text x="140.0" y="382.0" font-size="10" fill="#4A4038" text-anchor="middle">후식</text><text x="276.0" y="346.0" font-size="11" fill="#4A4038" text-anchor="middle">화로 라이브</text><text x="276.0" y="422.0" font-size="11" fill="#4A4038" text-anchor="middle">즉석 전·면</text><text x="492.0" y="340.0" font-size="12" fill="#4A4038" text-anchor="middle">핫푸드 A · 주찬</text><text x="492.0" y="420.0" font-size="12" fill="#4A4038" text-anchor="middle">반상찬 B · 나물·김치</text><text x="716.0" y="382.0" font-size="11.5" fill="#4A4038" text-anchor="middle">솥밥·국탕</text><text x="336.0" y="281.2" font-size="10" fill="#4A4038" text-anchor="middle">퇴식대</text><text x="792.0" y="281.2" font-size="10" fill="#4A4038" text-anchor="middle">퇴식대</text><text x="904.0" y="368.0" font-size="11.5" fill="#4A4038" text-anchor="middle">궁실 1 · 8인</text><text x="904.0" y="498.0" font-size="11.5" fill="#4A4038" text-anchor="middle">궁실 2 · 8인</text><text x="864.0" y="642.0" font-size="11" fill="#4A4038" text-anchor="middle">남</text><text x="936.0" y="642.0" font-size="11" fill="#4A4038" text-anchor="middle">여</text><text x="156.0" y="668.0" font-size="10.5" fill="#4A4038" text-anchor="middle">대기 벤치</text><text x="278.0" y="632.0" font-size="10.5" fill="#4A4038" text-anchor="middle">POS</text><text x="572.0" y="677.2" font-size="10.5" fill="#6B5F54" text-anchor="middle">창가 벤치석</text><defs><marker id="ah" markerWidth="8" markerHeight="8" refX="6" refY="3" orient="auto"><path d="M0,0 L6,3 L0,6 z" fill="#9E2A2B"></path></marker><marker id="ag" markerWidth="8" markerHeight="8" refX="6" refY="3" orient="auto"><path d="M0,0 L6,3 L0,6 z" fill="#1F6F65"></path></marker></defs><polyline points="180.0,668.0 180.0,566.0 354.0,566.0 354.0,486.0 354.0,372.0 618.0,372.0 618.0,486.0 796.0,486.0 796.0,302.0" fill="none" stroke="#9E2A2B" stroke-width="1.8" stroke-dasharray="7 5" marker-end="url(#ah)"></polyline><polyline points="640.0,226.0 640.0,278.0 492.0,278.0 492.0,302.0" fill="none" stroke="#1F6F65" stroke-width="1.8" stroke-dasharray="7 5" marker-end="url(#ag)"></polyline><text x="364.0" y="560.0" font-size="10" fill="#9E2A2B" text-anchor="start">고객 배식 동선 (1방향)</text><text x="664.0" y="266.8" font-size="10" fill="#1F6F65" text-anchor="start">리필 동선</text><line x1="96" y1="65.2" x2="832" y2="65.2" stroke="#8C8172" stroke-width="1"></line><line x1="96" y1="60.2" x2="96" y2="70.2" stroke="#8C8172"></line><line x1="832" y1="60.2" x2="832" y2="70.2" stroke="#8C8172"></line><text x="464" y="57.2" font-size="11.5" fill="#5E544B" text-anchor="middle">18,400</text><line x1="832" y1="65.2" x2="976" y2="65.2" stroke="#8C8172" stroke-width="1"></line><line x1="832" y1="60.2" x2="832" y2="70.2" stroke="#8C8172"></line><line x1="976" y1="60.2" x2="976" y2="70.2" stroke="#8C8172"></line><text x="904" y="57.2" font-size="11.5" fill="#5E544B" text-anchor="middle">3,600</text><line x1="96" y1="30" x2="976" y2="30" stroke="#8C8172" stroke-width="1"></line><line x1="96" y1="25" x2="96" y2="35" stroke="#8C8172"></line><line x1="976" y1="25" x2="976" y2="35" stroke="#8C8172"></line><text x="536" y="22" font-size="11.5" fill="#5E544B" text-anchor="middle">22,000</text><line x1="71.2" y1="90" x2="71.2" y2="250" stroke="#8C8172" stroke-width="1"></line><line x1="66.2" y1="90" x2="76.2" y2="90" stroke="#8C8172"></line><line x1="66.2" y1="250" x2="76.2" y2="250" stroke="#8C8172"></line><text transform="translate(62.2,170) rotate(-90)" font-size="11.5" fill="#5E544B" text-anchor="middle">4,000</text><line x1="71.2" y1="250" x2="71.2" y2="458" stroke="#8C8172" stroke-width="1"></line><line x1="66.2" y1="250" x2="76.2" y2="250" stroke="#8C8172"></line><line x1="66.2" y1="458" x2="76.2" y2="458" stroke="#8C8172"></line><text transform="translate(62.2,354) rotate(-90)" font-size="11.5" fill="#5E544B" text-anchor="middle">5,200</text><line x1="71.2" y1="458" x2="71.2" y2="690" stroke="#8C8172" stroke-width="1"></line><line x1="66.2" y1="458" x2="76.2" y2="458" stroke="#8C8172"></line><line x1="66.2" y1="690" x2="76.2" y2="690" stroke="#8C8172"></line><text transform="translate(62.2,574) rotate(-90)" font-size="11.5" fill="#5E544B" text-anchor="middle">5,800</text><line x1="36" y1="90" x2="36" y2="690" stroke="#8C8172" stroke-width="1"></line><line x1="31" y1="90" x2="41" y2="90" stroke="#8C8172"></line><line x1="31" y1="690" x2="41" y2="690" stroke="#8C8172"></line><text transform="translate(27,390) rotate(-90)" font-size="11.5" fill="#5E544B" text-anchor="middle">15,000</text><g transform="translate(944,28)"><circle r="16" fill="none" stroke="#8C8172"></circle><path d="M0,-13 L5,7 L0,2 L-5,7 Z" fill="#9E2A2B"></path><text y="-20" text-anchor="middle" font-size="10" fill="#5E544B">N</text></g><g transform="translate(96,714)"><rect width="80" height="6" fill="#3A322C"></rect><rect x="80" width="80" height="6" fill="#FBF7EE" stroke="#3A322C"></rect><rect x="160" width="80" height="6" fill="#3A322C"></rect><text y="22" font-size="11" fill="#5E544B">0</text><text x="240" y="22" font-size="11" fill="#5E544B" text-anchor="middle">6m</text></g><g transform="translate(616,700)"><rect width="360" height="80" fill="#FBF7EE" stroke="#3A322C"></rect><line x1="0" y1="27" x2="360" y2="27" stroke="#8C8172"></line><line x1="180" y1="27" x2="180" y2="80" stroke="#8C8172"></line><text x="12" y="19" font-size="13.5" font-family="Gowun Batang,serif" font-weight="700" fill="#231C19">밥상궁 한식뷔페 · 100평 표준매장 평면도</text><text x="12" y="46" font-size="11" fill="#5E544B">DWG NO. BSG-STD-100PY-A01</text><text x="12" y="64" font-size="11" fill="#5E544B">SCALE 1:100 (단위 mm)</text><text x="192" y="46" font-size="11" fill="#5E544B">AREA 330.0㎡ / 99.8평</text><text x="192" y="64" font-size="11" fill="#5E544B">SEATS 96 (HALL 80 + ROOM 16)</text></g></svg>